<mxfile host="app.diagrams.net" modified="2023-03-19T21:19:43.307Z" agent="5.0 (Windows)" etag="YH1k2NfzZbGkd241uilW" version="21.0.8" type="github">
  <diagram name="Page-1" id="0EqJw4dMcMhhv9a0cBXO">
    <mxGraphModel dx="5630" dy="3470" grid="1" gridSize="10" guides="1" tooltips="1" connect="1" arrows="1" fold="1" page="1" pageScale="1" pageWidth="850" pageHeight="1100" math="0" shadow="0">
      <root>
        <mxCell id="0" />
        <mxCell id="1" parent="0" />
        <mxCell id="Mu2-5CMPpmPyDiEf2NXh-25" value="All I Have" style="rounded=1;whiteSpace=wrap;html=1;" parent="1" vertex="1">
          <mxGeometry x="510" y="30" width="70" height="30" as="geometry" />
        </mxCell>
        <mxCell id="Mu2-5CMPpmPyDiEf2NXh-26" value="Wake Up" style="rounded=1;whiteSpace=wrap;html=1;" parent="1" vertex="1">
          <mxGeometry x="610" y="30" width="70" height="30" as="geometry" />
        </mxCell>
        <mxCell id="Mu2-5CMPpmPyDiEf2NXh-27" value="Hands Up" style="rounded=1;whiteSpace=wrap;html=1;" parent="1" vertex="1">
          <mxGeometry x="710" y="30" width="80" height="30" as="geometry" />
        </mxCell>
        <mxCell id="Mu2-5CMPpmPyDiEf2NXh-28" value="Only One" style="rounded=1;whiteSpace=wrap;html=1;" parent="1" vertex="1">
          <mxGeometry x="820" y="30" width="70" height="30" as="geometry" />
        </mxCell>
        <mxCell id="Mu2-5CMPpmPyDiEf2NXh-29" value="Thing Called Love" style="rounded=1;whiteSpace=wrap;html=1;" parent="1" vertex="1">
          <mxGeometry x="920" y="30" width="120" height="30" as="geometry" />
        </mxCell>
        <mxCell id="Mu2-5CMPpmPyDiEf2NXh-30" value="Just Being Me" style="rounded=1;whiteSpace=wrap;html=1;" parent="1" vertex="1">
          <mxGeometry x="1070" y="30" width="100" height="30" as="geometry" />
        </mxCell>
        <mxCell id="Mu2-5CMPpmPyDiEf2NXh-31" value="Intro" style="rounded=1;whiteSpace=wrap;html=1;" parent="1" vertex="1">
          <mxGeometry x="395" y="100" width="60" height="30" as="geometry" />
        </mxCell>
        <mxCell id="Mu2-5CMPpmPyDiEf2NXh-32" value="Mansion" style="rounded=1;whiteSpace=wrap;html=1;" parent="1" vertex="1">
          <mxGeometry x="310" y="150" width="80" height="40" as="geometry" />
        </mxCell>
        <mxCell id="Mu2-5CMPpmPyDiEf2NXh-33" value="All I Have" style="rounded=1;whiteSpace=wrap;html=1;" parent="1" vertex="1">
          <mxGeometry x="230" y="210" width="80" height="40" as="geometry" />
        </mxCell>
        <mxCell id="Mu2-5CMPpmPyDiEf2NXh-34" value="Wait" style="rounded=1;whiteSpace=wrap;html=1;" parent="1" vertex="1">
          <mxGeometry x="160" y="270" width="70" height="30" as="geometry" />
        </mxCell>
        <mxCell id="Mu2-5CMPpmPyDiEf2NXh-35" value="Wake Up" style="rounded=1;whiteSpace=wrap;html=1;" parent="1" vertex="1">
          <mxGeometry x="70" y="340" width="90" height="40" as="geometry" />
        </mxCell>
        <mxCell id="Mu2-5CMPpmPyDiEf2NXh-36" value="" style="endArrow=none;html=1;rounded=0;exitX=0.5;exitY=0;exitDx=0;exitDy=0;entryX=0.5;entryY=0;entryDx=0;entryDy=0;" parent="1" target="Mu2-5CMPpmPyDiEf2NXh-26" edge="1">
          <mxGeometry relative="1" as="geometry">
            <mxPoint x="115" y="40" as="sourcePoint" />
            <mxPoint x="120" y="80" as="targetPoint" />
            <Array as="points">
              <mxPoint x="115" y="10" />
              <mxPoint x="440" y="10" />
              <mxPoint x="645" y="10" />
            </Array>
          </mxGeometry>
        </mxCell>
        <mxCell id="Mu2-5CMPpmPyDiEf2NXh-39" value="" style="endArrow=none;html=1;rounded=0;exitX=0.5;exitY=0;exitDx=0;exitDy=0;entryX=0.5;entryY=0;entryDx=0;entryDy=0;" parent="1" source="Mu2-5CMPpmPyDiEf2NXh-35" edge="1">
          <mxGeometry relative="1" as="geometry">
            <mxPoint x="115" y="340" as="sourcePoint" />
            <mxPoint x="115" y="40" as="targetPoint" />
            <Array as="points" />
          </mxGeometry>
        </mxCell>
        <mxCell id="Mu2-5CMPpmPyDiEf2NXh-40" value="&lt;div&gt;Face It&lt;/div&gt;" style="rounded=1;whiteSpace=wrap;html=1;" parent="1" vertex="1">
          <mxGeometry y="410" width="70" height="40" as="geometry" />
        </mxCell>
        <mxCell id="Mu2-5CMPpmPyDiEf2NXh-41" value="Motivated" style="rounded=1;whiteSpace=wrap;html=1;" parent="1" vertex="1">
          <mxGeometry x="-80" y="480" width="80" height="40" as="geometry" />
        </mxCell>
        <mxCell id="Mu2-5CMPpmPyDiEf2NXh-42" value="Notepad" style="rounded=1;whiteSpace=wrap;html=1;" parent="1" vertex="1">
          <mxGeometry x="-160" y="550" width="80" height="40" as="geometry" />
        </mxCell>
        <mxCell id="Mu2-5CMPpmPyDiEf2NXh-43" value="Turn The Music Up" style="rounded=1;whiteSpace=wrap;html=1;" parent="1" vertex="1">
          <mxGeometry x="-240" y="620" width="80" height="50" as="geometry" />
        </mxCell>
        <mxCell id="Mu2-5CMPpmPyDiEf2NXh-44" value="Paralyzed" style="rounded=1;whiteSpace=wrap;html=1;" parent="1" vertex="1">
          <mxGeometry x="-310" y="700" width="70" height="30" as="geometry" />
        </mxCell>
        <mxCell id="Mu2-5CMPpmPyDiEf2NXh-46" value="I&#39;ll Keep On" style="rounded=1;whiteSpace=wrap;html=1;" parent="1" vertex="1">
          <mxGeometry x="-400" y="760" width="90" height="40" as="geometry" />
        </mxCell>
        <mxCell id="Mu2-5CMPpmPyDiEf2NXh-47" value="Can You Hold Me" style="rounded=1;whiteSpace=wrap;html=1;" parent="1" vertex="1">
          <mxGeometry x="-500" y="830" width="100" height="50" as="geometry" />
        </mxCell>
        <mxCell id="Mu2-5CMPpmPyDiEf2NXh-52" value="&lt;div&gt;Mansion&lt;/div&gt;" style="text;html=1;strokeColor=none;fillColor=none;align=center;verticalAlign=middle;whiteSpace=wrap;rounded=0;" parent="1" vertex="1">
          <mxGeometry x="-160" y="310" width="60" height="30" as="geometry" />
        </mxCell>
        <mxCell id="Mu2-5CMPpmPyDiEf2NXh-53" value="NF" style="text;html=1;strokeColor=none;fillColor=none;align=center;verticalAlign=middle;whiteSpace=wrap;rounded=0;" parent="1" vertex="1">
          <mxGeometry x="825" y="-70" width="60" height="30" as="geometry" />
        </mxCell>
        <mxCell id="Mu2-5CMPpmPyDiEf2NXh-55" value="Intro 2" style="rounded=1;whiteSpace=wrap;html=1;" parent="1" vertex="1">
          <mxGeometry x="-485" y="910" width="70" height="40" as="geometry" />
        </mxCell>
        <mxCell id="Mu2-5CMPpmPyDiEf2NXh-56" value="Therapy Session" style="rounded=1;whiteSpace=wrap;html=1;" parent="1" vertex="1">
          <mxGeometry x="-502.5" y="980" width="105" height="40" as="geometry" />
        </mxCell>
        <mxCell id="Mu2-5CMPpmPyDiEf2NXh-57" value="I Just Wanna Know" style="rounded=1;whiteSpace=wrap;html=1;" parent="1" vertex="1">
          <mxGeometry x="-515" y="1040" width="130" height="40" as="geometry" />
        </mxCell>
        <mxCell id="Mu2-5CMPpmPyDiEf2NXh-58" value="How Could You Leave Us" style="rounded=1;whiteSpace=wrap;html=1;" parent="1" vertex="1">
          <mxGeometry x="-500" y="1100" width="100" height="50" as="geometry" />
        </mxCell>
        <mxCell id="Mu2-5CMPpmPyDiEf2NXh-59" value="Breathe" style="rounded=1;whiteSpace=wrap;html=1;" parent="1" vertex="1">
          <mxGeometry x="-490" y="1170" width="80" height="30" as="geometry" />
        </mxCell>
        <mxCell id="Mu2-5CMPpmPyDiEf2NXh-60" value="Real" style="rounded=1;whiteSpace=wrap;html=1;" parent="1" vertex="1">
          <mxGeometry x="-485" y="1220" width="70" height="30" as="geometry" />
        </mxCell>
        <mxCell id="Mu2-5CMPpmPyDiEf2NXh-61" value="Oh Lord" style="rounded=1;whiteSpace=wrap;html=1;" parent="1" vertex="1">
          <mxGeometry x="-495" y="1270" width="90" height="40" as="geometry" />
        </mxCell>
        <mxCell id="Mu2-5CMPpmPyDiEf2NXh-62" value="I Can Feel It" style="rounded=1;whiteSpace=wrap;html=1;" parent="1" vertex="1">
          <mxGeometry x="-500" y="1330" width="100" height="40" as="geometry" />
        </mxCell>
        <mxCell id="Mu2-5CMPpmPyDiEf2NXh-63" value="Got You On My Mind" style="rounded=1;whiteSpace=wrap;html=1;" parent="1" vertex="1">
          <mxGeometry x="-515" y="1390" width="130" height="40" as="geometry" />
        </mxCell>
        <mxCell id="Mu2-5CMPpmPyDiEf2NXh-64" value="Grindin&#39;" style="rounded=1;whiteSpace=wrap;html=1;" parent="1" vertex="1">
          <mxGeometry x="-490" y="1450" width="80" height="30" as="geometry" />
        </mxCell>
        <mxCell id="Mu2-5CMPpmPyDiEf2NXh-65" value="Wish You Wouldn&#39;t" style="rounded=1;whiteSpace=wrap;html=1;" parent="1" vertex="1">
          <mxGeometry x="-510" y="1500" width="120" height="60" as="geometry" />
        </mxCell>
        <mxCell id="Mu2-5CMPpmPyDiEf2NXh-66" value="Statement" style="rounded=1;whiteSpace=wrap;html=1;" parent="1" vertex="1">
          <mxGeometry x="-495" y="1580" width="90" height="40" as="geometry" />
        </mxCell>
        <mxCell id="Mu2-5CMPpmPyDiEf2NXh-67" value="All I Do" style="rounded=1;whiteSpace=wrap;html=1;" parent="1" vertex="1">
          <mxGeometry x="-490" y="1640" width="80" height="30" as="geometry" />
        </mxCell>
        <mxCell id="Mu2-5CMPpmPyDiEf2NXh-68" value="Lost In The Moment" style="rounded=1;whiteSpace=wrap;html=1;" parent="1" vertex="1">
          <mxGeometry x="-515" y="1690" width="130" height="40" as="geometry" />
        </mxCell>
        <mxCell id="Mu2-5CMPpmPyDiEf2NXh-69" value="Intro III" style="rounded=1;whiteSpace=wrap;html=1;" parent="1" vertex="1">
          <mxGeometry x="-425" y="1770" width="80" height="30" as="geometry" />
        </mxCell>
        <mxCell id="Mu2-5CMPpmPyDiEf2NXh-70" value="&lt;div&gt;Therapy Session&lt;/div&gt;" style="text;html=1;strokeColor=none;fillColor=none;align=center;verticalAlign=middle;whiteSpace=wrap;rounded=0;" parent="1" vertex="1">
          <mxGeometry x="-840" y="1490" width="60" height="30" as="geometry" />
        </mxCell>
        <mxCell id="Mu2-5CMPpmPyDiEf2NXh-73" value="10 Feet Down" style="rounded=1;whiteSpace=wrap;html=1;" parent="1" vertex="1">
          <mxGeometry x="-265" y="1880" width="100" height="40" as="geometry" />
        </mxCell>
        <mxCell id="Mu2-5CMPpmPyDiEf2NXh-74" value="Outcast" style="rounded=1;whiteSpace=wrap;html=1;" parent="1" vertex="1">
          <mxGeometry x="-345" y="1820" width="80" height="30" as="geometry" />
        </mxCell>
        <mxCell id="Mu2-5CMPpmPyDiEf2NXh-75" value="Green Lights" style="rounded=1;whiteSpace=wrap;html=1;" parent="1" vertex="1">
          <mxGeometry x="-160" y="1940" width="100" height="40" as="geometry" />
        </mxCell>
        <mxCell id="Mu2-5CMPpmPyDiEf2NXh-76" value="Dreams" style="rounded=1;whiteSpace=wrap;html=1;" parent="1" vertex="1">
          <mxGeometry x="-60" y="2000" width="80" height="40" as="geometry" />
        </mxCell>
        <mxCell id="Mu2-5CMPpmPyDiEf2NXh-77" value="Let You Down" style="rounded=1;whiteSpace=wrap;html=1;" parent="1" vertex="1">
          <mxGeometry x="20" y="2050" width="110" height="40" as="geometry" />
        </mxCell>
        <mxCell id="Mu2-5CMPpmPyDiEf2NXh-78" value="Destiny" style="rounded=1;whiteSpace=wrap;html=1;" parent="1" vertex="1">
          <mxGeometry x="130" y="2100" width="80" height="30" as="geometry" />
        </mxCell>
        <mxCell id="Mu2-5CMPpmPyDiEf2NXh-79" value="My Life" style="rounded=1;whiteSpace=wrap;html=1;" parent="1" vertex="1">
          <mxGeometry x="210" y="2140" width="70" height="30" as="geometry" />
        </mxCell>
        <mxCell id="Mu2-5CMPpmPyDiEf2NXh-80" value="You&#39;re Special" style="rounded=1;whiteSpace=wrap;html=1;" parent="1" vertex="1">
          <mxGeometry x="260" y="2180" width="110" height="40" as="geometry" />
        </mxCell>
        <mxCell id="Mu2-5CMPpmPyDiEf2NXh-81" value="If You Want Love" style="rounded=1;whiteSpace=wrap;html=1;" parent="1" vertex="1">
          <mxGeometry x="360" y="2230" width="120" height="40" as="geometry" />
        </mxCell>
        <mxCell id="Mu2-5CMPpmPyDiEf2NXh-82" value="Remember This" style="rounded=1;whiteSpace=wrap;html=1;" parent="1" vertex="1">
          <mxGeometry x="470" y="2280" width="110" height="40" as="geometry" />
        </mxCell>
        <mxCell id="Mu2-5CMPpmPyDiEf2NXh-83" value="Know" style="rounded=1;whiteSpace=wrap;html=1;" parent="1" vertex="1">
          <mxGeometry x="580" y="2330" width="80" height="40" as="geometry" />
        </mxCell>
        <mxCell id="Mu2-5CMPpmPyDiEf2NXh-84" value="Lie" style="rounded=1;whiteSpace=wrap;html=1;" parent="1" vertex="1">
          <mxGeometry x="660" y="2380" width="80" height="40" as="geometry" />
        </mxCell>
        <mxCell id="Mu2-5CMPpmPyDiEf2NXh-85" value="3 A.M." style="rounded=1;whiteSpace=wrap;html=1;" parent="1" vertex="1">
          <mxGeometry x="740" y="2430" width="90" height="40" as="geometry" />
        </mxCell>
        <mxCell id="Mu2-5CMPpmPyDiEf2NXh-86" value="One Hundred" style="rounded=1;whiteSpace=wrap;html=1;" parent="1" vertex="1">
          <mxGeometry x="830" y="2480" width="110" height="40" as="geometry" />
        </mxCell>
        <mxCell id="Mu2-5CMPpmPyDiEf2NXh-87" value="Outro" style="rounded=1;whiteSpace=wrap;html=1;" parent="1" vertex="1">
          <mxGeometry x="940" y="2530" width="70" height="40" as="geometry" />
        </mxCell>
        <mxCell id="Mu2-5CMPpmPyDiEf2NXh-89" value="Perception" style="text;html=1;strokeColor=none;fillColor=none;align=center;verticalAlign=middle;whiteSpace=wrap;rounded=0;" parent="1" vertex="1">
          <mxGeometry x="70" y="2380" width="60" height="30" as="geometry" />
        </mxCell>
        <mxCell id="Mu2-5CMPpmPyDiEf2NXh-91" value="The Search" style="rounded=1;whiteSpace=wrap;html=1;" parent="1" vertex="1">
          <mxGeometry x="1010" y="2480" width="90" height="40" as="geometry" />
        </mxCell>
        <mxCell id="Mu2-5CMPpmPyDiEf2NXh-92" value="Leave Me Alone" style="rounded=1;whiteSpace=wrap;html=1;" parent="1" vertex="1">
          <mxGeometry x="1100" y="2430" width="120" height="40" as="geometry" />
        </mxCell>
        <mxCell id="Mu2-5CMPpmPyDiEf2NXh-93" value="Change" style="rounded=1;whiteSpace=wrap;html=1;" parent="1" vertex="1">
          <mxGeometry x="1220" y="2380" width="90" height="40" as="geometry" />
        </mxCell>
        <mxCell id="Mu2-5CMPpmPyDiEf2NXh-94" value="My Stress" style="rounded=1;whiteSpace=wrap;html=1;" parent="1" vertex="1">
          <mxGeometry x="1310" y="2330" width="100" height="40" as="geometry" />
        </mxCell>
        <mxCell id="Mu2-5CMPpmPyDiEf2NXh-95" value="Nate" style="rounded=1;whiteSpace=wrap;html=1;" parent="1" vertex="1">
          <mxGeometry x="1410" y="2280" width="80" height="40" as="geometry" />
        </mxCell>
        <mxCell id="Mu2-5CMPpmPyDiEf2NXh-96" value="Time" style="rounded=1;whiteSpace=wrap;html=1;" parent="1" vertex="1">
          <mxGeometry x="1490" y="2230" width="80" height="40" as="geometry" />
        </mxCell>
        <mxCell id="Mu2-5CMPpmPyDiEf2NXh-97" value="Returns" style="rounded=1;whiteSpace=wrap;html=1;" parent="1" vertex="1">
          <mxGeometry x="1570" y="2180" width="80" height="40" as="geometry" />
        </mxCell>
        <mxCell id="Mu2-5CMPpmPyDiEf2NXh-98" value="When I Grow Up" style="rounded=1;whiteSpace=wrap;html=1;" parent="1" vertex="1">
          <mxGeometry x="1650" y="2130" width="110" height="40" as="geometry" />
        </mxCell>
        <mxCell id="Mu2-5CMPpmPyDiEf2NXh-100" value="Only" style="rounded=1;whiteSpace=wrap;html=1;" parent="1" vertex="1">
          <mxGeometry x="1760" y="2090" width="70" height="30" as="geometry" />
        </mxCell>
        <mxCell id="Mu2-5CMPpmPyDiEf2NXh-101" value="Let Me Go" style="rounded=1;whiteSpace=wrap;html=1;" parent="1" vertex="1">
          <mxGeometry x="1830" y="2050" width="90" height="35" as="geometry" />
        </mxCell>
        <mxCell id="Mu2-5CMPpmPyDiEf2NXh-102" value="-Interlude-" style="rounded=1;whiteSpace=wrap;html=1;" parent="1" vertex="1">
          <mxGeometry x="1920" y="2010" width="80" height="30" as="geometry" />
        </mxCell>
        <mxCell id="Mu2-5CMPpmPyDiEf2NXh-103" value="Hate Myself" style="rounded=1;whiteSpace=wrap;html=1;" parent="1" vertex="1">
          <mxGeometry x="2000" y="1970" width="100" height="30" as="geometry" />
        </mxCell>
        <mxCell id="Mu2-5CMPpmPyDiEf2NXh-104" value="I Mess The Days" style="rounded=1;whiteSpace=wrap;html=1;" parent="1" vertex="1">
          <mxGeometry x="2100" y="1910" width="90" height="50" as="geometry" />
        </mxCell>
        <mxCell id="Mu2-5CMPpmPyDiEf2NXh-105" value="No Excuses" style="rounded=1;whiteSpace=wrap;html=1;" parent="1" vertex="1">
          <mxGeometry x="2170" y="1860" width="100" height="40" as="geometry" />
        </mxCell>
        <mxCell id="Mu2-5CMPpmPyDiEf2NXh-106" value="Like This" style="rounded=1;whiteSpace=wrap;html=1;" parent="1" vertex="1">
          <mxGeometry x="2260" y="1810" width="90" height="40" as="geometry" />
        </mxCell>
        <mxCell id="Mu2-5CMPpmPyDiEf2NXh-107" value="Options" style="rounded=1;whiteSpace=wrap;html=1;" parent="1" vertex="1">
          <mxGeometry x="2350" y="1760" width="80" height="40" as="geometry" />
        </mxCell>
        <mxCell id="Mu2-5CMPpmPyDiEf2NXh-108" value="WHY" style="rounded=1;whiteSpace=wrap;html=1;" parent="1" vertex="1">
          <mxGeometry x="2430" y="1710" width="70" height="40" as="geometry" />
        </mxCell>
        <mxCell id="Mu2-5CMPpmPyDiEf2NXh-109" value="Thinking" style="rounded=1;whiteSpace=wrap;html=1;" parent="1" vertex="1">
          <mxGeometry x="2500" y="1660" width="90" height="40" as="geometry" />
        </mxCell>
        <mxCell id="Mu2-5CMPpmPyDiEf2NXh-110" value="Trauma" style="rounded=1;whiteSpace=wrap;html=1;" parent="1" vertex="1">
          <mxGeometry x="2590" y="1610" width="80" height="40" as="geometry" />
        </mxCell>
        <mxCell id="Mu2-5CMPpmPyDiEf2NXh-111" value="The Search" style="text;html=1;strokeColor=none;fillColor=none;align=center;verticalAlign=middle;whiteSpace=wrap;rounded=0;" parent="1" vertex="1">
          <mxGeometry x="2100" y="2260" width="60" height="30" as="geometry" />
        </mxCell>
        <mxCell id="Mu2-5CMPpmPyDiEf2NXh-112" value="CLOUDS" style="rounded=1;whiteSpace=wrap;html=1;" parent="1" vertex="1">
          <mxGeometry x="2590" y="1550" width="80" height="40" as="geometry" />
        </mxCell>
        <mxCell id="Mu2-5CMPpmPyDiEf2NXh-113" value="THAT&#39;S A JOKE" style="rounded=1;whiteSpace=wrap;html=1;" parent="1" vertex="1">
          <mxGeometry x="2575" y="1490" width="110" height="40" as="geometry" />
        </mxCell>
        <mxCell id="Mu2-5CMPpmPyDiEf2NXh-114" value="JUST LIKE YOU" style="rounded=1;whiteSpace=wrap;html=1;" parent="1" vertex="1">
          <mxGeometry x="2575" y="1430" width="110" height="40" as="geometry" />
        </mxCell>
        <mxCell id="Mu2-5CMPpmPyDiEf2NXh-115" value="STORY" style="rounded=1;whiteSpace=wrap;html=1;" parent="1" vertex="1">
          <mxGeometry x="2585" y="1370" width="90" height="40" as="geometry" />
        </mxCell>
        <mxCell id="Mu2-5CMPpmPyDiEf2NXh-116" value="PRIDEFUL" style="rounded=1;whiteSpace=wrap;html=1;" parent="1" vertex="1">
          <mxGeometry x="2585" y="1310" width="90" height="40" as="geometry" />
        </mxCell>
        <mxCell id="Mu2-5CMPpmPyDiEf2NXh-117" value="LOST" style="rounded=1;whiteSpace=wrap;html=1;" parent="1" vertex="1">
          <mxGeometry x="2595" y="1250" width="70" height="40" as="geometry" />
        </mxCell>
        <mxCell id="Mu2-5CMPpmPyDiEf2NXh-118" value="LAYERS" style="rounded=1;whiteSpace=wrap;html=1;" parent="1" vertex="1">
          <mxGeometry x="2585" y="1190" width="90" height="40" as="geometry" />
        </mxCell>
        <mxCell id="Mu2-5CMPpmPyDiEf2NXh-119" value="DRIFTING" style="rounded=1;whiteSpace=wrap;html=1;" parent="1" vertex="1">
          <mxGeometry x="2590" y="1130" width="80" height="40" as="geometry" />
        </mxCell>
        <mxCell id="Mu2-5CMPpmPyDiEf2NXh-120" value="TRUST" style="rounded=1;whiteSpace=wrap;html=1;" parent="1" vertex="1">
          <mxGeometry x="2595" y="1070" width="70" height="40" as="geometry" />
        </mxCell>
        <mxCell id="Mu2-5CMPpmPyDiEf2NXh-121" value="PAID MY DUES" style="rounded=1;whiteSpace=wrap;html=1;" parent="1" vertex="1">
          <mxGeometry x="2580" y="1010" width="100" height="40" as="geometry" />
        </mxCell>
        <mxCell id="Mu2-5CMPpmPyDiEf2NXh-123" value="CLOUDS (THE MIXTAPE)" style="text;html=1;strokeColor=none;fillColor=none;align=center;verticalAlign=middle;whiteSpace=wrap;rounded=0;" parent="1" vertex="1">
          <mxGeometry x="2880" y="1315" width="60" height="30" as="geometry" />
        </mxCell>
        <mxCell id="Mu2-5CMPpmPyDiEf2NXh-124" value="HOPE" style="rounded=1;whiteSpace=wrap;html=1;" parent="1" vertex="1">
          <mxGeometry x="2310" y="740" width="80" height="40" as="geometry" />
        </mxCell>
        <mxCell id="Mu2-5CMPpmPyDiEf2NXh-125" value="MOTTO" style="rounded=1;whiteSpace=wrap;html=1;" parent="1" vertex="1">
          <mxGeometry x="1510" y="310" width="90" height="40" as="geometry" />
        </mxCell>
        <mxCell id="Mu2-5CMPpmPyDiEf2NXh-126" value="HOPE" style="text;html=1;strokeColor=none;fillColor=none;align=center;verticalAlign=middle;whiteSpace=wrap;rounded=0;" parent="1" vertex="1">
          <mxGeometry x="2150" y="290" width="60" height="30" as="geometry" />
        </mxCell>
        <mxCell id="Mu2-5CMPpmPyDiEf2NXh-129" style="edgeStyle=orthogonalEdgeStyle;rounded=0;orthogonalLoop=1;jettySize=auto;html=1;entryX=0.5;entryY=0;entryDx=0;entryDy=0;" parent="1" source="Mu2-5CMPpmPyDiEf2NXh-128" target="Mu2-5CMPpmPyDiEf2NXh-92" edge="1">
          <mxGeometry relative="1" as="geometry" />
        </mxCell>
        <mxCell id="Mu2-5CMPpmPyDiEf2NXh-130" style="edgeStyle=orthogonalEdgeStyle;rounded=0;orthogonalLoop=1;jettySize=auto;html=1;" parent="1" source="Mu2-5CMPpmPyDiEf2NXh-128" target="Mu2-5CMPpmPyDiEf2NXh-91" edge="1">
          <mxGeometry relative="1" as="geometry" />
        </mxCell>
        <mxCell id="Mu2-5CMPpmPyDiEf2NXh-131" style="edgeStyle=orthogonalEdgeStyle;rounded=0;orthogonalLoop=1;jettySize=auto;html=1;" parent="1" source="Mu2-5CMPpmPyDiEf2NXh-128" target="Mu2-5CMPpmPyDiEf2NXh-98" edge="1">
          <mxGeometry relative="1" as="geometry" />
        </mxCell>
        <mxCell id="Mu2-5CMPpmPyDiEf2NXh-132" style="edgeStyle=orthogonalEdgeStyle;rounded=0;orthogonalLoop=1;jettySize=auto;html=1;" parent="1" source="Mu2-5CMPpmPyDiEf2NXh-128" target="Mu2-5CMPpmPyDiEf2NXh-108" edge="1">
          <mxGeometry relative="1" as="geometry">
            <Array as="points">
              <mxPoint x="2140" y="1695" />
              <mxPoint x="2140" y="1730" />
            </Array>
          </mxGeometry>
        </mxCell>
        <mxCell id="Mu2-5CMPpmPyDiEf2NXh-133" style="edgeStyle=orthogonalEdgeStyle;rounded=0;orthogonalLoop=1;jettySize=auto;html=1;entryX=0;entryY=0.5;entryDx=0;entryDy=0;" parent="1" source="Mu2-5CMPpmPyDiEf2NXh-128" target="Mu2-5CMPpmPyDiEf2NXh-117" edge="1">
          <mxGeometry relative="1" as="geometry">
            <Array as="points">
              <mxPoint x="2140" y="1695" />
              <mxPoint x="2140" y="1270" />
            </Array>
          </mxGeometry>
        </mxCell>
        <mxCell id="Mu2-5CMPpmPyDiEf2NXh-134" style="edgeStyle=orthogonalEdgeStyle;rounded=0;orthogonalLoop=1;jettySize=auto;html=1;" parent="1" source="Mu2-5CMPpmPyDiEf2NXh-128" target="Mu2-5CMPpmPyDiEf2NXh-124" edge="1">
          <mxGeometry relative="1" as="geometry">
            <Array as="points">
              <mxPoint x="1640" y="760" />
            </Array>
          </mxGeometry>
        </mxCell>
        <mxCell id="Mu2-5CMPpmPyDiEf2NXh-128" value="Black balloons" style="rounded=0;whiteSpace=wrap;html=1;" parent="1" vertex="1">
          <mxGeometry x="1580" y="1670" width="110" height="50" as="geometry" />
        </mxCell>
        <mxCell id="Mu2-5CMPpmPyDiEf2NXh-140" style="edgeStyle=orthogonalEdgeStyle;rounded=0;orthogonalLoop=1;jettySize=auto;html=1;entryX=0.5;entryY=0;entryDx=0;entryDy=0;" parent="1" source="Mu2-5CMPpmPyDiEf2NXh-137" target="Mu2-5CMPpmPyDiEf2NXh-74" edge="1">
          <mxGeometry relative="1" as="geometry" />
        </mxCell>
        <mxCell id="Mu2-5CMPpmPyDiEf2NXh-141" style="edgeStyle=orthogonalEdgeStyle;rounded=0;orthogonalLoop=1;jettySize=auto;html=1;entryX=0.5;entryY=0;entryDx=0;entryDy=0;" parent="1" source="Mu2-5CMPpmPyDiEf2NXh-137" target="Mu2-5CMPpmPyDiEf2NXh-91" edge="1">
          <mxGeometry relative="1" as="geometry" />
        </mxCell>
        <mxCell id="Mu2-5CMPpmPyDiEf2NXh-142" style="edgeStyle=orthogonalEdgeStyle;rounded=0;orthogonalLoop=1;jettySize=auto;html=1;entryX=0.5;entryY=0;entryDx=0;entryDy=0;" parent="1" source="Mu2-5CMPpmPyDiEf2NXh-137" target="Mu2-5CMPpmPyDiEf2NXh-92" edge="1">
          <mxGeometry relative="1" as="geometry" />
        </mxCell>
        <mxCell id="Mu2-5CMPpmPyDiEf2NXh-144" style="edgeStyle=orthogonalEdgeStyle;rounded=0;orthogonalLoop=1;jettySize=auto;html=1;entryX=0;entryY=0.5;entryDx=0;entryDy=0;" parent="1" source="Mu2-5CMPpmPyDiEf2NXh-137" target="Mu2-5CMPpmPyDiEf2NXh-108" edge="1">
          <mxGeometry relative="1" as="geometry" />
        </mxCell>
        <mxCell id="Mu2-5CMPpmPyDiEf2NXh-145" style="edgeStyle=orthogonalEdgeStyle;rounded=0;orthogonalLoop=1;jettySize=auto;html=1;entryX=0;entryY=0.5;entryDx=0;entryDy=0;" parent="1" source="Mu2-5CMPpmPyDiEf2NXh-137" target="Mu2-5CMPpmPyDiEf2NXh-117" edge="1">
          <mxGeometry relative="1" as="geometry" />
        </mxCell>
        <mxCell id="Mu2-5CMPpmPyDiEf2NXh-137" value="Painted on Smile :]" style="rounded=0;whiteSpace=wrap;html=1;" parent="1" vertex="1">
          <mxGeometry x="1170" y="1435" width="120" height="60" as="geometry" />
        </mxCell>
        <mxCell id="Mu2-5CMPpmPyDiEf2NXh-148" style="edgeStyle=orthogonalEdgeStyle;rounded=0;orthogonalLoop=1;jettySize=auto;html=1;entryX=1;entryY=0.5;entryDx=0;entryDy=0;" parent="1" source="Mu2-5CMPpmPyDiEf2NXh-146" target="Mu2-5CMPpmPyDiEf2NXh-32" edge="1">
          <mxGeometry relative="1" as="geometry">
            <Array as="points">
              <mxPoint x="1055" y="170" />
            </Array>
          </mxGeometry>
        </mxCell>
        <mxCell id="Mu2-5CMPpmPyDiEf2NXh-149" style="edgeStyle=orthogonalEdgeStyle;rounded=0;orthogonalLoop=1;jettySize=auto;html=1;entryX=0.5;entryY=0;entryDx=0;entryDy=0;" parent="1" source="Mu2-5CMPpmPyDiEf2NXh-146" target="Mu2-5CMPpmPyDiEf2NXh-69" edge="1">
          <mxGeometry relative="1" as="geometry" />
        </mxCell>
        <mxCell id="Mu2-5CMPpmPyDiEf2NXh-150" style="edgeStyle=orthogonalEdgeStyle;rounded=0;orthogonalLoop=1;jettySize=auto;html=1;" parent="1" source="Mu2-5CMPpmPyDiEf2NXh-146" target="Mu2-5CMPpmPyDiEf2NXh-91" edge="1">
          <mxGeometry relative="1" as="geometry" />
        </mxCell>
        <mxCell id="Mu2-5CMPpmPyDiEf2NXh-151" style="edgeStyle=orthogonalEdgeStyle;rounded=0;orthogonalLoop=1;jettySize=auto;html=1;entryX=0.5;entryY=0;entryDx=0;entryDy=0;" parent="1" source="Mu2-5CMPpmPyDiEf2NXh-146" target="Mu2-5CMPpmPyDiEf2NXh-92" edge="1">
          <mxGeometry relative="1" as="geometry" />
        </mxCell>
        <mxCell id="Mu2-5CMPpmPyDiEf2NXh-152" style="edgeStyle=orthogonalEdgeStyle;rounded=0;orthogonalLoop=1;jettySize=auto;html=1;entryX=0.5;entryY=1;entryDx=0;entryDy=0;" parent="1" source="Mu2-5CMPpmPyDiEf2NXh-146" target="Mu2-5CMPpmPyDiEf2NXh-124" edge="1">
          <mxGeometry relative="1" as="geometry" />
        </mxCell>
        <mxCell id="Mu2-5CMPpmPyDiEf2NXh-146" value="Fear involved" style="rounded=0;whiteSpace=wrap;html=1;" parent="1" vertex="1">
          <mxGeometry x="995" y="1200" width="120" height="60" as="geometry" />
        </mxCell>
      </root>
    </mxGraphModel>
  </diagram>
</mxfile>
